<svg width="42" height="42" viewBox="0 0 42 42" fill="none" xmlns="http://www.w3.org/2000/svg">
<path d="M36.575 3.5H5.425C4.91446 3.5 4.42483 3.70281 4.06382 4.06382C3.70281 4.42483 3.5 4.91446 3.5 5.425V36.575C3.5 36.8278 3.54979 37.0781 3.64653 37.3117C3.74327 37.5452 3.88507 37.7574 4.06382 37.9362C4.24257 38.1149 4.45478 38.2567 4.68833 38.3535C4.92189 38.4502 5.17221 38.5 5.425 38.5H22.19V24.9375H17.64V19.6875H22.19V15.75C22.0957 14.8256 22.2049 13.8917 22.5098 13.0139C22.8146 12.1362 23.3078 11.3357 23.9548 10.6687C24.6018 10.0017 25.3869 9.48437 26.2549 9.15292C27.123 8.82146 28.0531 8.68394 28.98 8.75C30.3421 8.74162 31.7035 8.81173 33.0575 8.96V13.685H30.275C28.07 13.685 27.65 14.735 27.65 16.2575V19.635H32.9L32.2175 24.885H27.65V38.5H36.575C36.8278 38.5 37.0781 38.4502 37.3117 38.3535C37.5452 38.2567 37.7574 38.1149 37.9362 37.9362C38.1149 37.7574 38.2567 37.5452 38.3535 37.3117C38.4502 37.0781 38.5 36.8278 38.5 36.575V5.425C38.5 5.17221 38.4502 4.92189 38.3535 4.68833C38.2567 4.45478 38.1149 4.24257 37.9362 4.06382C37.7574 3.88507 37.5452 3.74327 37.3117 3.64653C37.0781 3.54979 36.8278 3.5 36.575 3.5V3.5Z" fill="#8F5D00"/>
</svg>
