<svg width="79" height="79" viewBox="0 0 79 79" fill="none" xmlns="http://www.w3.org/2000/svg">
<rect x="1.5" y="1.5" width="76" height="76" rx="38" fill="#8F5D00"/>
<rect x="1.5" y="1.5" width="76" height="76" rx="38" stroke="#FFF2AA" stroke-width="3"/>
<path d="M38.9008 48.888C39.1141 49.912 39.2208 51.0427 39.2208 52.28L38.5808 52.12C38.5594 51.736 38.5061 51.4693 38.4208 51.32C38.3354 51.192 38.1328 51.0853 37.8128 51C36.5541 50.616 34.3141 50.424 31.0928 50.424C28.8528 50.424 26.8154 50.5093 24.9808 50.68C23.1674 50.8507 21.6954 51.096 20.5648 51.416C20.0954 50.52 19.8607 49.912 19.8607 49.592C19.8607 49.336 20.0314 49.1867 20.3727 49.144C21.6101 48.9307 22.6234 48.3973 23.4128 47.544C24.2021 46.6693 24.8314 45.5067 25.3008 44.056C25.7914 42.6053 26.2394 40.7493 26.6448 38.488C26.8368 37.464 27.0394 36.248 27.2528 34.84C27.4661 33.4107 27.6261 32.3867 27.7328 31.768C27.6901 32.1093 27.7968 31.384 28.0528 29.592C28.0954 29.2507 28.3088 28.9947 28.6927 28.824C29.1621 28.6107 30.1221 28.4293 31.5728 28.28C33.0234 28.1093 34.2501 28.024 35.2528 28.024C35.3594 28.0453 35.4448 28.2053 35.5088 28.504C35.5728 28.8027 35.6048 29.112 35.6048 29.432C35.6048 29.6453 35.5941 29.784 35.5728 29.848C35.2101 29.784 34.8048 29.7413 34.3568 29.72C33.9088 29.6773 33.5141 29.656 33.1728 29.656C32.5541 29.656 32.0954 29.7947 31.7968 30.072C31.5194 30.3493 31.2954 30.8293 31.1248 31.512L30.4528 34.552C29.8128 37.5387 29.3114 39.7147 28.9488 41.08C28.3301 43.4267 27.6474 45.2187 26.9008 46.456C26.1754 47.6933 25.3434 48.6 24.4048 49.176C25.7274 49.0907 27.0928 48.9413 28.5008 48.728C29.9088 48.4933 30.7514 48.3547 31.0288 48.312C32.4794 48.0773 33.5888 47.9067 34.3568 47.8C35.1461 47.6933 35.8714 47.64 36.5328 47.64C37.3861 47.64 37.9728 47.7467 38.2928 47.96C38.6128 48.152 38.8154 48.4613 38.9008 48.888ZM47.9455 51.384C46.9428 51.384 45.9722 51.2773 45.0335 51.064C44.1162 50.8507 43.3482 50.584 42.7295 50.264C42.1322 49.944 41.7588 49.6347 41.6095 49.336C41.7162 48.8027 41.8228 48.0453 41.9295 47.064C42.0575 46.0613 42.1322 45.3253 42.1535 44.856C42.3882 44.664 42.6868 44.5467 43.0495 44.504C43.1348 46.2107 43.5722 47.5227 44.3615 48.44C45.1508 49.336 46.2922 49.784 47.7855 49.784C49.3428 49.784 50.5802 49.3253 51.4975 48.408C52.4362 47.4907 52.9055 46.3173 52.9055 44.888C52.9055 44.184 52.7775 43.5867 52.5215 43.096C52.2868 42.584 51.9562 42.1467 51.5295 41.784C51.1242 41.4 50.5375 40.952 49.7695 40.44C48.7028 39.6933 47.8388 39.0427 47.1775 38.488C46.5375 37.912 46.0255 37.272 45.6415 36.568C45.2575 35.8427 45.0655 35.0213 45.0655 34.104C45.0655 32.9307 45.3855 31.9173 46.0255 31.064C46.6868 30.1893 47.5722 29.528 48.6815 29.08C49.8122 28.6107 51.0708 28.376 52.4575 28.376C53.8015 28.376 55.0282 28.5787 56.1375 28.984C57.2468 29.368 57.9508 29.784 58.2495 30.232C57.3962 32.152 56.8948 33.4427 56.7455 34.104C56.4255 34.232 56.0415 34.296 55.5935 34.296C55.8708 33.5493 56.0095 32.8987 56.0095 32.344C56.0095 31.4907 55.6788 30.84 55.0175 30.392C54.3775 29.944 53.5348 29.72 52.4895 29.72C50.9962 29.72 49.8868 30.1253 49.1615 30.936C48.4575 31.7467 48.1055 32.6853 48.1055 33.752C48.1055 34.776 48.4255 35.64 49.0655 36.344C49.7055 37.048 50.5375 37.7093 51.5615 38.328C52.6708 39.0107 53.5455 39.608 54.1855 40.12C54.8255 40.6107 55.3588 41.2293 55.7855 41.976C56.2335 42.7227 56.4575 43.6187 56.4575 44.664C56.4575 46.0507 56.0735 47.256 55.3055 48.28C54.5375 49.2827 53.5028 50.0507 52.2015 50.584C50.9215 51.1173 49.5028 51.384 47.9455 51.384Z" fill="#FFF2AA"/>
</svg>
