<svg width="42" height="42" viewBox="0 0 42 42" fill="none" xmlns="http://www.w3.org/2000/svg">
<path d="M39.5 9.9744C38.1094 10.5552 36.6388 10.9392 35.134 11.1144C36.7216 10.2012 37.9114 8.76458 38.4825 7.07105C36.9906 7.92614 35.3574 8.5286 33.654 8.85224C32.5154 7.66343 30.9992 6.87209 29.3431 6.60233C27.6871 6.33258 25.9849 6.59967 24.5035 7.36172C23.0221 8.12377 21.8453 9.33767 21.1577 10.813C20.4701 12.2884 20.3105 13.9418 20.704 15.5139C17.6874 15.367 14.7367 14.6108 12.0435 13.2943C9.35031 11.9778 6.97487 10.1306 5.0715 7.87259C4.4039 8.99504 4.05311 10.2662 4.054 11.5597C4.05163 12.7609 4.3578 13.944 4.94525 15.0037C5.53269 16.0634 6.38318 16.9668 7.421 17.6335C6.21476 17.6019 5.03429 17.2903 3.98 16.7251V16.8142C3.98904 18.4972 4.60159 20.1256 5.71403 21.4238C6.82648 22.7221 8.37052 23.6106 10.085 23.9389C9.42502 24.1323 8.73982 24.2343 8.05 24.2418C7.5725 24.2364 7.09618 24.1947 6.6255 24.1171C7.11373 25.5648 8.05855 26.8301 9.32849 27.7367C10.5984 28.6434 12.1303 29.1464 13.711 29.1757C11.0418 31.1978 7.74638 32.3014 4.35 32.3106C3.73161 32.3125 3.11371 32.2768 2.5 32.2037C5.96769 34.3594 10.0088 35.5037 14.1365 35.4989C16.9849 35.5274 19.8107 35.0091 22.4488 33.9743C25.0868 32.9396 27.4843 31.4091 29.5011 29.4722C31.518 27.5354 33.1137 25.231 34.1952 22.6937C35.2767 20.1564 35.8223 17.4371 35.8 14.6946C35.8 14.3918 35.8 14.0711 35.8 13.7505C37.2517 12.7082 38.5037 11.4304 39.5 9.9744V9.9744Z" fill="#8F5D00"/>
</svg>
